#!OML:ASF H:\Terrain\Patient Classification 1\Terrain2\Thursday\justin.ASF
:FULLY-SPECIFIED
:DEGREES
2389
root 31.8946 17.9599 1.20161 535.917 -51.8961 186.83
lowerback 6.34034 0.495769 4.26192
upperback 2.19387 0.788252 3.93663
thorax -1.28278 0.306041 1.61053
lowerneck -13.3614 2.15427 -8.06966
upperneck 38.1263 2.6502 1.42071
head 15.5256 -0.692104 2.2484
rclavicle -3.04141e-014 -1.59028e-015
rhumerus -32.1493 -5.5141 -77.7028
rradius 26.5002
rwrist -7.31847
rhand -23.7821 7.71006
rfingers 7.12502
rthumb 2.68777 -22.2528
lclavicle -3.04141e-014 -1.59028e-015
lhumerus -36.8833 -1.4803 90.2465
lradius 38.6411
lwrist 5.73736
lhand -19.7269 21.4644
lfingers 7.12502
lthumb 6.60345 51.3414
rfemur -5.4692 -6.76038 24.9423
rtibia 27.4263
rfoot -17.8356 -3.47548
rtoes 4.56666
lfemur -18.932 8.63129 -14.3097
ltibia 41.3869
lfoot -18.7987 -0.599125
ltoes 8.20782
2390
root 31.8861 17.9398 1.16797 535.793 -52.906 187.015
lowerback 6.08562 0.532706 4.47523
upperback 2.16606 0.838543 3.87177
thorax -1.16501 0.335784 1.42217
lowerneck -13.2776 2.11016 -7.96371
upperneck 37.9465 2.59674 1.41496
head 15.421 -0.673795 2.21958
rclavicle -4.67144e-014 -3.18055e-015
rhumerus -32.2192 -5.61527 -77.543
rradius 26.5071
rwrist -7.25681
rhand -24.0779 7.83279
rfingers 7.12502
rthumb 2.40216 -22.1334
lclavicle -4.67144e-014 -3.18055e-015
lhumerus -36.8813 -0.949564 89.8373
lradius 37.8125
lwrist 5.34837
lhand -19.6668 21.6368
lfingers 7.12502
lthumb 6.66148 51.512
rfemur -5.32175 -7.57082 25.0188
rtibia 27.3057
rfoot -17.8608 -3.79674
rtoes 2.64694
lfemur -19.3179 9.99273 -14.7024
ltibia 41.7069
lfoot -18.3686 0.66483
ltoes 3.39109
2391
root 31.8902 17.9466 1.1391 535.426 -53.8318 187.466
lowerback 6.13301 0.576947 4.69721
upperback 2.04404 0.92392 3.90409
thorax -1.31322 0.376464 1.32507
lowerneck -13.1269 2.0724 -7.83046
upperneck 37.8666 2.53328 1.3554
head 15.3532 -0.675787 2.15998
rclavicle 1.59028e-015 -6.36111e-015
rhumerus -32.255 -5.14961 -77.5012
rradius 26.4737
rwrist -7.91895
rhand -24.0712 7.43861
rfingers 7.12502
rthumb 2.40863 -22.5275
lclavicle 1.59028e-015 -6.36111e-015
lhumerus -36.904 -0.197782 89.3619
lradius 36.9084
lwrist 4.2961
lhand -19.0948 21.0849
lfingers 7.12502
lthumb 7.21367 50.942
rfemur -5.19044 -7.95206 25.3266
rtibia 27.0846
rfoot -17.8404 -4.14135
rtoes 3.36295
lfemur -19.4676 10.9456 -14.6683
ltibia 42.054
lfoot -18.3349 0.510796
ltoes 6.25878
2392
root 31.8953 17.956 1.10844 534.937 -54.7648 187.906
lowerback 6.273 0.616162 4.9086
upperback 1.99994 1.00254 3.90628
thorax -1.43174 0.413602 1.20259
lowerneck -13.1233 2.04566 -7.75443
upperneck 37.9549 2.46704 1.40754
head 15.3995 -0.683494 2.1614
rclavicle -1.69961e-014 -2.38542e-015
rhumerus -32.3594 -4.98682 -77.4264
rradius 26.6492
rwrist -8.19687
rhand -23.9903 7.16602
rfingers 7.12502
rthumb 2.48672 -22.7992
lclavicle -1.69961e-014 -2.38542e-015
lhumerus -36.9297 0.0206596 89.0429
lradius 36.2116
lwrist 4.05234
lhand -18.4463 20.6773
lfingers 7.12502
lthumb 7.83956 50.5119
rfemur -5.02412 -8.12571 25.6157
rtibia 27.0911
rfoot -18.0085 -4.548
rtoes 4.88913
lfemur -19.4146 11.442 -14.6067
ltibia 42.2979
lfoot -18.4177 0.647084
ltoes 8.57442
2393
root 31.8884 17.9522 1.07657 534.358 -55.8493 188.414
lowerback 6.2495 0.583868 5.22009
upperback 2.03352 0.973062 3.87606
thorax -1.37758 0.399884 1.00037
lowerneck -13.2901 2.03012 -7.65352
upperneck 38.0611 2.42125 1.51232
head 15.4927 -0.669289 2.18796
rclavicle 5.65542e-014 7.15625e-014
rhumerus -32.482 -4.86903 -77.4487
rradius 26.8559
rwrist -8.11031
rhand -24.2989 6.97874
rfingers 7.12502
rthumb 2.18869 -22.9898
lclavicle 5.65542e-014 7.15625e-014
lhumerus -37.0166 0.304278 88.5904
lradius 35.6396
lwrist 3.9292
lhand -17.613 20.5447
lfingers 7.12502
lthumb 8.64382 50.3477
rfemur -4.75532 -8.70008 25.8425
rtibia 27.1136
rfoot -18.1372 -4.7044
rtoes 7.13121
lfemur -19.3275 11.9784 -14.6311
ltibia 42.4599
lfoot -18.3072 0.974363
ltoes 8.98571
2394
root 31.8829 17.9343 1.04582 534.416 -56.8965 188.304
lowerback 6.00505 0.502119 4.92422
upperback 2.10279 0.825599 3.92819
thorax -1.17869 0.330748 1.23142
lowerneck -13.4952 2.07409 -7.69949
upperneck 38.0363 2.56294 1.52841
head 15.5199 -0.59998 2.2321
rclavicle -2.59414e-014 1.35174e-014
rhumerus -32.4105 -3.83694 -77.6242
rradius 27.0518
rwrist -8.77755
rhand -24.5151 6.53025
rfingers 7.12502
rthumb 1.97992 -23.4403
lclavicle -2.59414e-014 1.35174e-014
lhumerus -37.1564 0.883652 88.3633
lradius 35.3124
lwrist 4.41336
lhand -17.5857 21.1849
lfingers 7.12502
lthumb 8.67011 50.9868
rfemur -4.61019 -9.13258 25.7457
rtibia 27.0852
rfoot -18.1425 -5.02043
rtoes 8.24292
lfemur -19.4318 12.7579 -15.1086
ltibia 42.634
lfoot -18.1824 1.08115
ltoes 8.45883
2395
root 31.8913 17.916 1.01482 534.375 -57.738 188.439
lowerback 5.74255 0.482548 4.65377
upperback 2.17777 0.758996 4.04953
thorax -0.96179 0.299427 1.51396
lowerneck -13.6614 2.05646 -7.86969
upperneck 37.8318 2.66614 1.53712
head 15.45 -0.551255 2.28676
rclavicle 1.58034e-014 3.18055e-015
rhumerus -32.2094 -2.85447 -77.7611
rradius 27.2826
rwrist -9.91531
rhand -24.376 6.56544
rfingers 7.12502
rthumb 2.11424 -23.4038
lclavicle 1.58034e-014 3.18055e-015
lhumerus -36.8718 2.11124 87.983
lradius 34.3933
lwrist 4.32191
lhand -19.1016 21.8455
lfingers 7.12502
lthumb 7.20706 51.7028
rfemur -4.68999 -8.76387 26.0242
rtibia 27.159
rfoot -18.1912 -6.21737
rtoes 6.84192
lfemur -19.6034 13.3506 -15.3287
ltibia 42.703
lfoot -17.9805 0.859241
ltoes 8.98197
2396
root 31.8974 17.9242 0.983174 533.548 -58.4933 189.476
lowerback 5.65629 0.53621 5.09071
upperback 2.18874 0.839696 4.13994
thorax -0.894973 0.338583 1.35962
lowerneck -13.8159 1.92586 -7.94996
upperneck 37.6604 2.55191 1.58292
head 15.4082 -0.577893 2.30667
rclavicle -2.95195e-014 -4.69132e-014
rhumerus -32.1861 -2.6841 -77.7634
rradius 27.5436
rwrist -10.7824
rhand -24.2939 7.12485
rfingers 7.12502
rthumb 2.19351 -22.8436
lclavicle -2.95195e-014 -4.69132e-014
lhumerus -36.5735 3.31133 87.2855
lradius 33.2207
lwrist 3.36769
lhand -20.2111 21.4133
lfingers 7.12502
lthumb 6.136 51.3044
rfemur -4.79827 -8.43024 26.8094
rtibia 27.3222
rfoot -18.3231 -7.35955
rtoes 6.47336
lfemur -19.7069 13.9237 -14.9239
ltibia 42.7629
lfoot -17.6101 0.474005
ltoes 10.5067
2397
root 31.8901 17.9143 0.956514 533.251 -59.2563 189.773
lowerback 5.63669 0.625157 5.25105
upperback 2.14658 0.970911 4.10202
thorax -0.922116 0.405456 1.22295
lowerneck -13.855 1.813 -7.95157
upperneck 37.6209 2.40825 1.61117
head 15.4075 -0.622088 2.2988
rclavicle -2.78299e-015 -1.82882e-014
rhumerus -32.3656 -2.81664 -77.5802
rradius 27.7871
rwrist -11.1804
rhand -24.2433 7.65544
rfingers 7.12502
rthumb 2.24237 -22.3125
lclavicle -2.78299e-015 -1.82882e-014
lhumerus -37.1531 2.31549 87.4715
lradius 33.4532
lwrist 4.82798
lhand -21.0603 22.1947
lfingers 7.12502
lthumb 5.31614 52.1081
rfemur -4.63921 -8.82455 26.9419
rtibia 27.1571
rfoot -18.4094 -7.64997
rtoes 6.696
lfemur -19.7733 14.6073 -15.0732
ltibia 42.9479
lfoot -17.3959 0.586802
ltoes 9.19679
2398
root 31.8738 17.9046 0.934137 533.563 -60.0494 189.27
lowerback 5.66676 0.764822 5.05557
upperback 2.07006 1.16706 3.92698
thorax -1.01625 0.50774 1.13758
lowerneck -13.7129 1.67753 -7.87479
upperneck 37.5323 2.18424 1.62966
head 15.3453 -0.688935 2.25627
rclavicle 1.85864e-014 8.74653e-015
rhumerus -32.7006 -3.23347 -77.3022
rradius 28.009
rwrist -11.1138
rhand -23.9031 7.91579
rfingers 7.12502
rthumb 2.57098 -22.0485
lclavicle 1.85864e-014 8.74653e-015
lhumerus -37.2012 2.62832 87.2011
lradius 32.6564
lwrist 5.58771
lhand -22.2758 23.1688
lfingers 7.12502
lthumb 4.14249 53.1083
rfemur -4.41994 -9.24824 26.5429
rtibia 27.1377
rfoot -18.7228 -7.82364
rtoes 6.79757
lfemur -19.6114 15.0933 -15.7734
ltibia 42.9069
lfoot -17.1931 1.53699
ltoes 3.23173
2399
root 31.8538 17.9547 0.913888 533.648 -60.8737 189.084
lowerback 5.70638 0.86248 5.02382
upperback 1.96222 1.31457 3.8135
thorax -1.14586 0.583113 1.0272
lowerneck -13.5672 1.54804 -7.89921
upperneck 37.4164 2.00435 1.64142
head 15.266 -0.751589 2.23548
rclavicle 1.31198e-014 -2.62396e-014
rhumerus -33.0986 -3.24 -77.1941
rradius 28.3212
rwrist -11.4556
rhand -23.5132 7.90697
rfingers 7.12502
rthumb 2.94752 -22.0524
lclavicle 1.31198e-014 -2.62396e-014
lhumerus -37.2285 3.33533 86.7573
lradius 31.7588
lwrist 5.39914
lhand -22.9043 23.2971
lfingers 7.12502
lthumb 3.53549 53.2475
rfemur -4.28437 -9.37156 26.3734
rtibia 27.2709
rfoot -18.9207 -8.46923
rtoes 5.9923
lfemur -18.8273 13.619 -15.6379
ltibia 42.8407
lfoot -17.8535 -0.84631
ltoes 23.2442
